<?xml version="1.0" standalone="no"?>
<!DOCTYPE svg PUBLIC "-//W3C//DTD SVG 20010904//EN"
 "http://www.w3.org/TR/2001/REC-SVG-20010904/DTD/svg10.dtd">
<svg version="1.0" xmlns="http://www.w3.org/2000/svg"
 width="500.000000pt" height="500.000000pt" viewBox="0 0 500.000000 500.000000"
 preserveAspectRatio="xMidYMid meet">
<metadata>
Created by potrace 1.11, written by Peter Selinger 2001-2013
</metadata>
<g transform="translate(0.000000,500.000000) scale(0.100000,-0.100000)"
fill="#000000" stroke="none">
<path d="M2318 4915 c-2 -1 -34 -5 -73 -9 -38 -3 -83 -8 -100 -11 -153 -27
-213 -41 -314 -70 -182 -52 -373 -132 -529 -222 -61 -35 -271 -176 -297 -200
-11 -10 -43 -36 -70 -58 -78 -63 -233 -222 -317 -325 -214 -266 -374 -582
-458 -906 -59 -227 -75 -356 -75 -604 0 -215 6 -290 39 -475 45 -249 172 -584
292 -773 19 -29 34 -54 34 -57 0 -9 98 -145 166 -230 361 -450 925 -779 1474
-860 24 -4 47 -8 50 -10 29 -18 468 -27 610 -12 170 17 334 52 505 108 136 45
174 61 335 141 611 303 1079 882 1251 1547 54 208 71 337 74 566 3 222 -7 348
-45 531 -12 54 -23 110 -26 124 -3 14 -25 84 -49 156 -261 785 -918 1391
-1716 1583 -142 34 -166 38 -309 55 -90 11 -442 20 -452 11z m417 -289 c11 -2
33 -5 49 -5 39 -1 26 -11 -59 -46 -111 -45 -418 -201 -688 -349 -253 -138
-300 -160 -378 -171 -24 -4 -62 -10 -84 -14 -37 -7 -136 -7 -455 -2 l-105 2
25 20 c14 12 43 38 65 58 59 55 192 152 289 210 258 156 544 255 851 295 94
12 443 14 490 2z m299 -56 c136 -35 276 -86 401 -146 l89 -43 -29 -11 c-148
-57 -435 -156 -435 -150 0 4 7 13 15 20 9 7 14 15 12 17 -2 2 -20 -12 -39 -30
-58 -55 -92 -60 -403 -62 -154 -1 -291 -5 -305 -8 -14 -4 -56 -9 -95 -12 -38
-2 -92 -7 -120 -10 -146 -15 -150 -15 -134 0 8 8 97 64 199 125 267 161 633
338 702 339 15 1 79 -12 142 -29z m749 -362 c91 -68 229 -188 201 -174 -6 3
-26 8 -45 11 -19 3 -88 17 -154 29 -66 13 -189 34 -273 47 l-153 23 52 23 c29
13 50 26 46 29 -3 3 -18 -1 -34 -9 -63 -33 -214 -48 -320 -33 -29 4 -55 12
-59 17 -3 5 -2 9 3 10 4 0 15 2 23 4 20 5 316 107 415 143 l79 30 58 -37 c33
-20 105 -70 161 -113z m-1013 -104 c-30 -14 -113 -51 -185 -81 -71 -30 -186
-82 -255 -115 -84 -40 -137 -60 -162 -59 -20 0 -72 15 -115 34 -43 19 -130 51
-193 72 -63 20 -116 38 -118 40 -2 1 17 16 41 33 49 33 96 42 322 67 28 3 61
8 75 10 14 2 74 7 135 10 60 4 111 7 112 9 1 1 91 3 200 4 l198 2 -55 -26z
m430 -4 c-14 -10 -48 -31 -77 -47 -90 -47 -49 -37 51 12 85 42 102 47 163 48
92 0 168 -11 413 -58 69 -13 136 -26 150 -29 123 -23 127 -25 190 -96 34 -37
69 -79 78 -91 9 -13 19 -26 22 -29 9 -7 80 -106 123 -173 l38 -59 -78 9 c-98
10 -362 9 -603 -1 -102 -5 -201 -9 -222 -9 -23 0 -35 -4 -32 -12 7 -17 -107
-37 -293 -50 -94 -7 -141 -12 -212 -24 -69 -11 -162 -7 -192 9 -13 7 -52 37
-87 66 -35 30 -71 58 -80 63 -26 15 2 55 70 104 39 26 55 44 49 50 -19 19 9
54 188 239 l95 98 135 0 136 0 -25 -20z m-316 -12 c-10 -13 -21 -25 -24 -28
-20 -20 -137 -158 -184 -217 -63 -81 -105 -123 -122 -123 -6 0 -17 -13 -24
-30 -7 -16 -18 -30 -25 -30 -6 0 -50 23 -96 51 -46 29 -108 64 -138 79 l-53
27 35 22 c82 51 228 117 452 206 41 16 180 64 189 64 5 1 1 -9 -10 -21z
m-1671 -103 c-31 -22 -308 -94 -318 -83 -2 2 8 19 24 36 36 43 87 57 212 59
87 1 98 -1 82 -12z m307 -19 c0 -10 -174 -92 -247 -117 -45 -15 -91 -23 -138
-23 -66 0 -145 18 -145 32 0 9 166 59 287 87 87 20 243 33 243 21z m85 -36
c-3 -5 -3 -10 2 -11 4 0 16 -2 25 -4 9 -2 28 3 42 10 21 11 36 11 88 -1 75
-17 226 -65 288 -92 l45 -19 -45 -28 c-24 -15 -83 -46 -130 -68 -47 -23 -98
-49 -113 -60 -64 -44 -98 -55 -141 -45 -53 11 -429 159 -422 165 3 4 341 154
364 162 2 1 0 -3 -3 -9z m-595 -112 c33 -14 28 -14 -82 -14 -64 1 -115 2 -114
3 1 1 15 9 31 18 35 19 110 15 165 -7z m1203 -54 c18 -9 53 -31 78 -49 26 -18
61 -41 79 -50 30 -15 31 -18 15 -35 -22 -24 -117 -70 -247 -119 l-107 -40
-128 56 c-70 31 -129 57 -130 58 -3 2 253 150 307 177 43 22 91 23 133 2z
m-1068 -57 c61 -14 112 -19 180 -21 66 -2 76 -6 166 -59 53 -31 101 -57 108
-57 7 0 11 -7 9 -17 -5 -25 -67 -52 -133 -57 -82 -7 -85 -8 -45 -15 l35 -6
-50 -37 c-72 -52 -162 -80 -260 -81 -44 0 -92 3 -107 6 -16 3 -28 2 -28 -3 0
-18 -119 -28 -200 -16 -98 13 -132 57 -39 50 28 -2 39 1 39 11 0 27 148 62
295 70 100 6 210 16 214 21 8 8 -238 2 -314 -7 -103 -13 -203 -33 -328 -65
-53 -14 -79 -11 -105 11 -11 9 135 255 151 256 7 0 21 2 32 4 11 2 54 7 95 11
41 3 76 7 77 8 6 5 181 -2 208 -7z m1313 -85 c17 -11 -26 -70 -107 -145 -55
-50 -67 -57 -94 -52 -57 9 -72 9 -93 2 -23 -8 -74 7 -74 21 0 5 21 17 48 27
46 18 99 45 232 119 72 40 70 39 88 28z m91 -64 c49 -30 87 -66 78 -74 -14
-14 -104 -31 -162 -30 -49 1 -60 4 -60 17 0 21 75 108 94 108 7 1 30 -9 50
-21z m-691 -57 c52 -26 93 -51 92 -57 -5 -34 -150 28 -220 94 l-25 23 30 -7
c17 -3 72 -28 123 -53z m-127 -6 c38 -20 84 -50 102 -67 31 -29 31 -30 7 -23
-14 3 -58 20 -98 36 -40 17 -89 32 -108 34 -20 1 -37 5 -40 8 -4 4 54 46 64
47 1 0 34 -16 73 -35z m-23 -78 c70 -29 79 -36 60 -42 -25 -8 -406 -19 -398
-12 3 2 36 26 75 52 67 46 72 47 125 42 30 -4 92 -21 138 -40z m2182 9 c58 -4
116 -8 130 -10 14 -3 53 -7 87 -10 34 -4 70 -9 79 -13 20 -8 26 -6 -263 -104
-112 -37 -215 -75 -230 -84 l-28 -16 43 6 c24 3 86 23 139 45 89 37 196 69
283 84 19 3 46 8 60 11 14 3 50 7 80 10 l55 5 -75 -26 c-41 -14 -82 -27 -90
-29 -53 -11 -289 -98 -415 -153 -137 -59 -277 -112 -296 -112 -26 0 12 33 74
66 40 20 83 46 97 56 l25 20 -30 -8 c-28 -7 -143 -63 -192 -94 -19 -12 -28
-10 -85 19 -66 34 -284 177 -293 192 -3 4 13 20 36 35 95 60 253 100 434 111
55 3 101 6 102 7 3 2 173 -3 273 -8z m-1846 -26 c15 -15 -3 -27 -34 -22 -35 5
-49 20 -29 33 14 9 47 3 63 -11z m1026 -35 c0 -6 -69 -35 -83 -35 -18 0 0 11
40 25 45 17 43 16 43 10z m-1537 -40 c48 1 84 -2 80 -6 -21 -19 -89 -28 -198
-27 -122 0 -170 8 -146 22 20 13 104 22 141 16 19 -3 74 -5 123 -5z m251 -15
c-28 -10 -71 -21 -95 -24 l-44 -6 55 24 c30 13 73 24 95 24 l40 1 -51 -19z
m-663 -3 c-5 -5 -28 -11 -50 -13 -21 -1 -48 -7 -58 -12 -20 -10 -77 -7 -114 6
-25 10 -23 10 90 25 48 6 140 2 132 -6z m3379 -44 c19 -50 70 -210 70 -220 0
-1 -22 -14 -49 -27 -27 -14 -98 -59 -157 -101 -163 -115 -195 -130 -279 -129
-68 0 -142 20 -240 63 -22 10 -80 33 -130 51 -49 18 -106 41 -126 51 -78 39
-79 38 194 147 314 125 465 176 642 215 48 11 53 8 75 -50z m-1830 33 c-21
-26 -170 -65 -170 -45 0 17 48 40 96 46 27 3 51 7 53 9 2 2 11 4 19 4 11 0 12
-3 2 -14z m240 6 c0 -19 -261 -133 -302 -132 -24 1 40 48 89 65 26 10 77 30
113 46 67 28 100 35 100 21z m-1460 -31 c0 -5 -13 -8 -29 -7 -16 0 -27 4 -25
8 7 11 54 10 54 -1z m1585 -52 c71 -40 221 -145 270 -187 l26 -23 -123 -81
c-129 -84 -238 -142 -288 -153 -43 -9 -104 29 -197 123 -102 103 -109 115 -89
144 21 29 20 48 -1 48 -14 0 -14 2 3 21 21 24 89 60 149 79 40 13 122 55 140
71 12 12 24 7 110 -42z m-1798 25 c-27 -15 -137 -33 -126 -21 7 9 109 36 134
36 16 0 15 -3 -8 -15z m1088 -44 c3 -6 -3 -10 -13 -10 -21 0 -46 23 -36 33 8
7 40 -8 49 -23z m-135 -35 c10 -12 8 -16 -12 -24 -13 -5 -45 -12 -71 -15 -55
-8 -56 3 -3 35 37 23 69 24 86 4z m-370 -49 c0 -6 -121 -46 -139 -46 -27 0 -2
13 61 31 69 19 78 21 78 15z m470 -64 c-72 -36 -104 -41 -145 -22 -29 13 -33
19 -20 24 26 9 57 7 50 -4 -9 -14 33 -11 75 5 53 20 83 18 40 -3z m272 -44
c61 -66 45 -75 -23 -14 -28 25 -55 46 -61 46 -5 0 -6 5 -3 10 13 21 41 8 87
-42z m-1017 31 c-6 -9 -84 -23 -92 -16 -13 13 10 24 51 24 25 0 43 -3 41 -8z
m530 -12 c-21 -11 -119 -28 -109 -18 7 7 81 26 109 28 l20 2 -20 -12z m2505
-14 c0 -11 -26 -33 -68 -57 -93 -55 -212 -118 -212 -113 0 3 42 32 93 65 50
33 110 74 132 91 46 35 55 37 55 14z m-2122 -67 c48 -41 127 -112 176 -158
l90 -85 -75 -26 c-40 -15 -111 -35 -156 -46 -87 -19 -94 -18 -107 24 -3 11
-15 31 -26 45 l-20 25 9 -30 c5 -16 14 -42 20 -57 12 -31 -2 -44 -49 -48 -46
-4 -55 0 -135 50 -83 52 -104 57 -64 14 l24 -26 -25 7 c-14 4 -38 13 -55 21
-16 7 -77 34 -135 59 -160 71 -250 116 -250 125 0 18 75 31 187 33 82 2 126 7
143 17 24 14 22 15 -45 20 -64 5 -68 7 -43 17 14 7 55 17 90 23 107 19 313 61
317 66 15 15 54 -5 129 -70z m932 48 c0 -2 -23 -15 -51 -30 -53 -26 -59 -16
-8 15 25 15 59 24 59 15z m195 -99 c122 -54 301 -116 385 -134 90 -20 89 -19
30 -57 -69 -44 -149 -81 -301 -139 -205 -78 -270 -70 -542 66 l-169 84 37 32
c37 32 128 79 240 124 33 13 89 38 125 55 36 18 70 28 75 24 6 -4 60 -29 120
-55z m-2884 10 c100 -3 153 -23 265 -100 l69 -47 -45 3 c-52 3 -109 23 -236
84 -50 24 -110 48 -133 55 -22 6 -41 13 -41 16 0 4 8 3 18 -1 9 -4 56 -9 103
-10z m1924 -11 c56 -37 92 -72 126 -121 30 -43 32 -54 7 -30 -153 145 -185
177 -180 177 4 0 25 -12 47 -26z m1989 -61 c4 -32 10 -73 13 -92 l6 -34 -70 6
c-148 13 -208 20 -211 22 -6 5 242 164 249 160 4 -3 10 -31 13 -62z m-3473
-26 c48 -29 113 -87 106 -94 -5 -4 -62 30 -77 47 -3 3 -22 20 -43 38 -44 37
-38 42 14 9z m-646 -28 c28 -6 127 -33 220 -59 94 -27 198 -54 232 -61 34 -7
61 -15 58 -17 -15 -15 -171 -29 -300 -27 -120 2 -168 7 -240 26 l-90 24 1 50
c3 87 1 83 37 79 17 -2 55 -9 82 -15z m2485 -109 c14 -4 84 -34 157 -68 72
-33 162 -70 199 -83 60 -20 64 -24 43 -32 -13 -5 -62 -11 -109 -14 -85 -5 -85
-5 -140 31 -30 20 -58 36 -63 36 -21 0 -118 73 -132 99 -20 40 -19 55 3 46 9
-4 28 -10 42 -15z m1520 5 c36 -4 78 -8 93 -9 16 -2 32 -8 36 -14 4 -6 8 -47
9 -92 3 -71 1 -80 -15 -81 -10 0 -25 -2 -33 -4 -36 -7 -98 -16 -140 -20 -25
-3 -56 -8 -70 -11 -41 -10 -410 -12 -485 -3 -38 5 -101 14 -139 20 -66 11 -68
12 -45 25 13 8 82 32 154 55 71 23 163 57 205 77 158 74 194 79 430 57z
m-2755 -55 c3 -6 0 -10 -7 -10 -18 1 -49 26 -42 33 8 7 40 -8 49 -23z m1025
21 c0 -11 -95 -83 -138 -105 -18 -10 -49 -19 -69 -21 -42 -4 -99 13 -85 27 5
5 53 24 106 44 54 19 110 41 125 49 29 16 61 19 61 6z m-1549 -87 c57 -25 106
-48 109 -51 3 -3 -35 -2 -85 1 -144 11 -220 22 -300 44 l-60 16 55 13 c98 24
135 30 156 26 12 -1 68 -24 125 -49z m1654 -35 c43 -56 43 -57 17 -54 -15 2
-54 7 -87 10 -33 4 -80 9 -105 11 -24 3 -46 7 -48 9 -5 5 56 49 108 77 52 29
52 29 115 -53z m-1054 55 c12 -15 11 -16 -11 -9 -35 10 -49 25 -23 25 11 0 27
-7 34 -16z m179 -50 c0 -2 -9 -4 -20 -4 -11 0 -20 4 -20 9 0 5 9 7 20 4 11 -3
20 -7 20 -9z m-1150 -64 c52 -10 153 -33 225 -49 71 -16 132 -28 134 -25 2 2
-15 12 -38 21 l-41 18 112 3 c157 4 179 -1 233 -55 24 -25 42 -49 39 -54 -2
-4 9 -15 26 -24 60 -31 93 -82 53 -82 -92 0 -115 -3 -104 -16 8 -11 1 -14 -37
-16 -38 -1 -62 6 -117 34 -130 67 -400 146 -635 186 -61 10 -83 20 -118 48
l-43 36 33 5 c44 7 162 -6 278 -30z m2271 15 c0 -6 -10 -12 -23 -13 -19 -4
-20 -2 -9 12 15 17 33 18 32 1z m-906 -19 c28 -14 44 -25 36 -25 -21 -1 -94
21 -116 36 -19 12 -18 13 5 13 14 0 48 -11 75 -24z m1570 -23 c188 -28 228
-33 266 -35 38 -1 56 -17 22 -19 -10 0 -25 -2 -33 -4 -8 -2 -31 -6 -50 -9 -19
-4 -42 -9 -50 -11 -8 -2 -33 -6 -55 -10 -22 -3 -65 -10 -95 -15 -30 -5 -73
-12 -95 -15 -22 -3 -67 -10 -100 -15 -59 -9 -94 -14 -185 -25 -54 -7 -66 -9
-108 -19 -48 -11 -81 7 -125 67 -37 51 -37 68 2 48 30 -17 58 -13 79 9 13 15
36 22 78 26 32 2 77 10 99 15 22 6 54 13 70 16 17 3 32 7 35 9 8 9 154 1 245
-13z m-1415 -12 l25 -7 -22 -12 c-17 -9 -28 -10 -43 -2 -43 23 -16 37 40 21z
m1757 -27 c-3 -3 -12 -4 -19 -1 -8 3 -5 6 6 6 11 1 17 -2 13 -5z m-1504 -33
c55 -16 68 -17 63 -6 -4 12 20 14 159 13 l165 -2 50 -59 c28 -32 50 -65 50
-72 0 -20 -36 -25 -155 -21 -125 5 -179 18 -394 100 -122 46 -140 56 -125 65
25 15 103 8 187 -18z m-971 -28 c23 -21 26 -52 2 -33 -18 16 -38 50 -28 50 4
0 16 -7 26 -17z m2978 -40 c0 -38 -36 -245 -54 -312 -8 -30 -20 -57 -26 -61
-19 -12 -355 -2 -480 14 -14 2 -50 7 -80 10 -58 8 -327 52 -370 61 -14 3 -41
8 -60 11 -35 5 -140 49 -140 58 0 7 131 79 180 99 118 46 461 120 615 133 44
4 81 7 82 8 2 1 77 3 168 5 l165 2 0 -28z m-3774 -50 c-7 -7 -26 7 -26 19 0 6
6 6 15 -2 9 -7 13 -15 11 -17z m137 -10 c-7 -2 -21 -2 -30 0 -10 3 -4 5 12 5
17 0 24 -2 18 -5z m57 -77 c30 -3 79 -8 109 -11 50 -6 104 -15 156 -28 11 -3
43 -16 70 -28 l50 -24 -58 -3 c-107 -6 -417 64 -417 94 0 7 8 11 18 10 9 -2
42 -6 72 -10z m584 2 c33 -2 36 -4 20 -15 -10 -7 -29 -14 -43 -14 -14 -1 -39
-2 -56 -3 -31 -2 -84 11 -98 24 -4 4 20 8 55 9 34 1 64 4 67 6 2 3 7 3 11 0 4
-2 24 -5 44 -7z m-1124 -8 c13 -8 13 -10 -2 -10 -9 0 -20 5 -23 10 -8 13 5 13
25 0z m1709 -14 c42 -22 54 -41 37 -55 -39 -33 -126 -2 -126 44 0 21 5 25 30
25 17 0 43 -6 59 -14z m160 -19 c17 -7 28 -16 24 -20 -11 -11 -58 -8 -71 5
-29 29 -5 37 47 15z m-664 -20 c24 -12 44 -37 45 -55 0 -31 -171 10 -184 44
-11 29 88 37 139 11z m-1180 -104 c71 -110 344 -474 385 -513 3 -3 34 -39 70
-80 99 -115 254 -266 363 -354 76 -61 47 -54 -40 10 -43 31 -80 60 -83 63 -3
4 -21 19 -40 35 -88 71 -258 247 -351 363 -120 149 -379 529 -379 556 0 20 32
-14 75 -80z m111 56 c18 -11 58 -47 89 -82 67 -73 203 -191 332 -288 330 -248
577 -359 1163 -524 91 -26 170 -52 176 -58 33 -34 119 -221 177 -382 46 -128
109 -337 103 -342 -2 -2 -26 -6 -52 -8 -40 -2 -68 6 -163 47 -369 160 -736
376 -1020 600 -276 218 -538 494 -744 781 -58 80 -164 247 -173 272 -8 20 73
8 112 -16z m-146 -137 c43 -72 91 -149 106 -170 15 -20 46 -62 68 -92 107
-147 303 -357 456 -490 41 -36 77 -68 80 -72 3 -3 73 -57 157 -120 146 -109
346 -241 467 -308 32 -17 82 -46 110 -62 28 -17 146 -77 261 -134 l210 -103
-70 5 c-512 38 -1003 265 -1360 628 -219 222 -393 494 -495 776 -34 91 -94
314 -79 290 5 -8 45 -75 89 -148z m2776 118 c1 0 14 -18 28 -41 15 -22 57 -74
93 -116 36 -41 63 -76 61 -78 -5 -6 -176 83 -237 123 -45 30 -55 43 -58 70 -3
26 0 34 19 42 17 7 73 7 94 0z m-2437 -56 c50 -49 561 -400 743 -510 89 -54
329 -174 347 -174 6 0 13 -5 16 -10 13 -21 -83 3 -199 49 -227 92 -530 268
-716 418 -91 74 -190 174 -196 199 -4 13 -11 24 -18 24 -20 0 -39 17 -32 29
10 16 15 14 55 -25z m2553 29 c5 -12 107 -86 287 -210 114 -79 157 -113 140
-112 -30 0 -231 64 -225 70 3 3 -44 53 -104 112 -115 113 -142 147 -116 147 8
0 16 -3 18 -7z m188 -27 c14 -3 41 -8 60 -10 19 -3 45 -8 56 -10 27 -5 122
-20 256 -40 139 -21 362 -37 519 -39 l76 -1 -13 -41 c-6 -23 -25 -75 -42 -116
l-29 -74 -169 0 c-273 1 -296 7 -530 146 -189 113 -301 207 -231 194 12 -3 33
-7 47 -9z m-2195 -49 c39 -14 115 -46 170 -72 55 -26 159 -69 230 -97 193 -73
226 -96 334 -233 60 -75 181 -249 181 -259 0 -3 -24 2 -52 10 -200 59 -464
183 -663 313 -174 113 -445 331 -445 358 0 25 156 12 245 -20z m1470 -10 c298
-106 485 -186 578 -249 79 -53 450 -330 475 -355 26 -24 56 -72 50 -79 -6 -5
-291 -5 -328 1 -14 2 -43 6 -65 9 -97 14 -244 52 -333 86 -238 91 -477 270
-676 507 -57 68 -63 79 -48 87 84 48 199 45 347 -7z m106 23 l24 -20 -30 12
c-39 15 -54 28 -33 28 9 0 26 -9 39 -20z m-1231 -62 c16 -12 28 -24 25 -26 -7
-7 -114 51 -109 59 6 11 47 -5 84 -33z m158 16 c33 -14 242 -214 223 -214 -20
0 -114 73 -190 148 -47 45 -82 82 -78 82 4 0 24 -7 45 -16z m545 -8 c18 -7 55
-37 82 -67 172 -185 258 -260 402 -353 269 -173 609 -271 945 -271 83 0 93 -8
26 -20 -24 -4 -48 -9 -54 -10 -7 -2 -43 -10 -80 -18 -105 -24 -187 -32 -329
-32 -156 0 -218 17 -293 78 -37 30 -60 42 -85 43 -61 1 -357 232 -522 406 -80
85 -195 226 -195 241 0 6 26 14 53 16 10 0 32 -5 50 -13z m-264 -68 c18 -18
47 -53 63 -78 l31 -45 -62 60 c-62 60 -89 95 -73 95 4 0 23 -14 41 -32z m1762
-217 c57 15 121 5 279 -42 52 -16 114 -31 138 -35 23 -3 42 -12 42 -19 0 -14
-87 -162 -124 -210 -21 -27 -31 -32 -74 -34 -70 -3 -107 16 -185 93 -38 36
-94 85 -125 108 -68 50 -132 109 -132 121 0 10 54 5 84 -8 16 -7 17 -5 11 14
-6 21 -5 22 15 11 16 -9 33 -9 71 1z m497 -22 c-2 -6 -7 -10 -11 -10 -4 1 -14
1 -22 1 -8 0 -15 5 -15 10 0 6 12 10 26 10 14 0 24 -5 22 -11z m-2128 -75 c52
-26 192 -110 310 -189 118 -78 243 -155 277 -171 34 -15 60 -31 57 -35 -10
-17 -84 5 -139 41 l-60 40 -3 -26 c-4 -27 -4 -27 -69 -21 -35 4 -96 16 -133
29 -61 19 -70 25 -75 50 -4 16 -21 43 -39 61 -30 30 -179 195 -220 245 -11 12
-15 22 -11 22 5 0 52 -21 105 -46z m1809 -383 c17 -11 -15 -54 -107 -144 -57
-57 -60 -58 -103 -53 -155 19 -227 48 -229 93 0 15 64 36 240 77 160 37 179
40 199 27z m-1457 -83 l113 -41 225 -2 c291 -2 289 -2 578 -178 72 -45 132
-84 132 -87 0 -5 -132 -85 -212 -129 -69 -37 -242 -109 -342 -141 -84 -26
-136 -39 -260 -65 -10 -3 -42 -7 -71 -10 l-52 -6 -16 43 c-16 44 -50 146 -132
398 -26 80 -56 163 -65 185 -26 58 -30 75 -21 75 5 0 60 -19 123 -42z m1002
-43 c3 -9 0 -15 -8 -15 -24 0 -46 12 -40 21 9 14 41 10 48 -6z m129 -181 c17
-5 17 -7 2 -24 -19 -21 -33 -18 -85 17 l-35 24 50 -6 c28 -3 58 -8 68 -11z"/>
<path d="M830 3398 c0 -4 13 -8 29 -8 16 0 44 -3 62 -6 19 -4 30 -3 26 2 -10
11 -117 22 -117 12z"/>
</g>
</svg>
